<svg width="24" height="24" viewBox="0 0 24 24" fill="none" xmlns="http://www.w3.org/2000/svg">
<path d="M18.6134 16.6538H20.5727C21.1605 16.6538 21.5523 16.262 21.5523 15.6742V12.7353C21.5523 11.8536 20.8666 11.0699 20.0828 10.874C18.3195 10.3841 15.6745 9.79635 15.6745 9.79635C15.6745 9.79635 14.4009 8.42485 13.5192 7.54317C13.0294 7.15131 12.4416 6.85742 11.7559 6.85742H4.8984C4.31061 6.85742 3.82079 7.24928 3.5269 7.7391L2.1554 10.5801C2.02568 10.9584 1.95947 11.3556 1.95947 11.7556V15.6742C1.95947 16.262 2.35133 16.6538 2.93911 16.6538H4.8984" stroke="white" stroke-width="1.95928" stroke-linecap="round" stroke-linejoin="round"/>
<path d="M6.85723 18.6129C7.93932 18.6129 8.81652 17.7357 8.81652 16.6536C8.81652 15.5715 7.93932 14.6943 6.85723 14.6943C5.77515 14.6943 4.89795 15.5715 4.89795 16.6536C4.89795 17.7357 5.77515 18.6129 6.85723 18.6129Z" stroke="white" stroke-width="1.95928" stroke-linecap="round" stroke-linejoin="round"/>
<path d="M8.81689 16.6543H14.6947" stroke="white" stroke-width="1.95928" stroke-linecap="round" stroke-linejoin="round"/>
<path d="M16.6536 18.6129C17.7357 18.6129 18.6129 17.7357 18.6129 16.6536C18.6129 15.5715 17.7357 14.6943 16.6536 14.6943C15.5715 14.6943 14.6943 15.5715 14.6943 16.6536C14.6943 17.7357 15.5715 18.6129 16.6536 18.6129Z" stroke="white" stroke-width="1.95928" stroke-linecap="round" stroke-linejoin="round"/>
</svg>
